<svg width="40" height="44" viewBox="0 0 40 44" fill="none" xmlns="http://www.w3.org/2000/svg">
<path d="M39.9949 22.0223C39.9949 27.4882 39.9839 32.9548 40 38.4207C40.0073 40.8413 38.2957 43.1463 35.9828 43.7796C33.476 44.4664 30.9758 43.516 29.6284 41.3297C29.0725 40.4283 28.8004 39.4421 28.7997 38.3848C28.7975 27.4765 28.7806 16.5689 28.8121 5.66064C28.8187 3.32273 29.9305 1.57863 32.0657 0.544767C34.4518 -0.610642 37.156 0.154505 38.7243 2.0531C39.5648 3.07012 40 4.27459 39.9986 5.62403C39.9905 11.0899 39.9949 16.5565 39.9949 22.0223Z" fill="white"/>
<path d="M25.6435 30.332C25.6435 33.1385 25.6976 35.9465 25.623 38.7509C25.5791 40.3858 24.825 41.7368 23.5156 42.7699C22.1938 43.8125 20.6789 44.0659 19.0902 43.8184C18.0844 43.6617 17.173 43.1938 16.4079 42.4646C15.6449 41.7375 15.1263 40.8772 14.841 39.8784C14.7357 39.5094 14.6955 39.1096 14.6947 38.7238C14.686 33.1107 14.686 27.4984 14.6918 21.8854C14.694 19.6602 16.2257 17.7038 18.2519 16.998C19.3155 16.6275 20.382 16.4898 21.4697 16.7951C22.5164 17.0888 23.4564 17.591 24.1937 18.417C25.1848 19.527 25.6559 20.8281 25.6508 22.3159C25.642 24.9877 25.6486 27.6602 25.6486 30.3328C25.6464 30.332 25.6449 30.332 25.6435 30.332Z" fill="#1154D4"/>
<path d="M10.9729 38.2626C11.0585 39.6706 10.5881 40.9007 9.71109 41.9639C9.16029 42.6324 8.45588 43.1244 7.6476 43.4861C6.59282 43.9591 5.48682 44.0118 4.41009 43.809C2.76501 43.5 1.50687 42.5643 0.664939 41.0764C-0.0533696 39.8061 -0.0965266 38.423 0.102435 37.0706C0.312368 35.6487 1.04019 34.4478 2.25809 33.5751C3.50453 32.6825 4.88994 32.4101 6.36459 32.5895C7.17068 32.6876 7.91313 33.034 8.60218 33.4872C9.88884 34.3336 10.5611 35.5762 10.8997 37.0245C10.9934 37.4213 10.9524 37.8496 10.9729 38.2626Z" fill="#1154D4"/>
</svg>
